<svg xmlns="http://www.w3.org/2000/svg" id="Layer_1" width="1600" height="400" data-name="Layer 1" version="1.1"><defs id="defs1"><style id="style1">.cls-3{fill:#fff}</style></defs><path id="rect18" d="M0 0h254.06v400H0Z" style="fill:#19b6ee;fill-opacity:1"/><text xml:space="preserve" id="text21" x="311.253" y="346.633" style="font-size:257.271px;font-family:&quot;Ubuntu Sans&quot;;-inkscape-font-specification:&quot;Ubuntu Sans&quot;;fill:#fff;fill-opacity:1;stroke-width:2.6799"><tspan id="tspan21" x="311.253" y="346.633" style="font-style:normal;font-variant:normal;font-weight:300;font-stretch:normal;font-family:&quot;Ubuntu Sans&quot;;-inkscape-font-specification:&quot;Ubuntu Sans Light&quot;;fill:#fff;fill-opacity:1;stroke-width:2.6799">Sirf Project</tspan></text><text xml:space="preserve" id="text21-5" x="313.592" y="85.872" style="font-size:72px;font-family:&quot;Ubuntu Sans&quot;;-inkscape-font-specification:&quot;Ubuntu Sans&quot;;fill:#fff;fill-opacity:1;stroke-width:2.6799"><tspan id="tspan21-3" x="313.592" y="85.872" style="font-style:normal;font-variant:normal;font-weight:400;font-stretch:normal;font-size:72px;font-family:&quot;Ubuntu Sans&quot;;-inkscape-font-specification:&quot;Ubuntu Sans&quot;;fill:#fff;fill-opacity:1;stroke-width:2.6799">Powered by Ubuntu</tspan></text><path id="path4339" d="m190.11 165-4.114.024c-23.135.134-59.434 7.96-96.02 44.708-3.17-1.37-6.868-2.426-10.947-2.497-6.05-.105-12.835 2.176-18.812 8.154-30.745 30.752-22.053 66.833-22.053 66.833l1.414 5.669 27.087-18.301 22.915 22.923 22.92 22.924-18.294 27.09 5.665 1.418s36.072 8.695 66.817-22.057c5.626-5.627 7.994-11.972 8.146-17.745.118-4.511-1.008-8.586-2.505-12.041 30.206-30.094 40.94-60.002 43.81-82.534 2.936-23.056-2.322-38.755-2.322-38.755l-.647-1.914-1.914-.647s-8.272-2.651-21.145-3.1zm-4.066 8.206c.702-.004 1.39.002 2.065.012 10.587.16 16.331 1.658 18.537 2.297 1.133 4.336 3.533 16.11 1.378 33.023-2.722 21.372-12.853 50.084-43.282 79.593a111.08 111.08 0 0 1-3.615 2.649l-.02.012c-.575.403-1.15.778-1.727 1.166-.846.57-1.694 1.142-2.544 1.682-.255.163-.509.316-.763.476-13.753 8.59-27.607 13.432-34.581 15.536-1.01.295-1.858.532-2.461.692l-.044.012-23.618-23.628-23.695-23.698c.137-.62.344-1.51.627-2.62 1.885-7.076 6.435-21.18 15.453-34.765.077-.115.15-.23.228-.344.664-.99 1.369-1.975 2.081-2.956.31-.424.6-.849.92-1.27.618-.824 1.282-1.63 1.937-2.442.33-.409.638-.824.979-1.23 35.762-36.929 70.379-44.07 92.145-44.197zM159.6 198.742c-6.074 0-12.15 2.32-16.783 6.955-9.268 9.27-9.268 24.296 0 33.566 9.268 9.27 24.294 9.27 33.562 0a23.662 23.662 0 0 0 6.951-16.783 23.662 23.662 0 0 0-6.951-16.783 23.653 23.653 0 0 0-16.78-6.955zm-80.712 16.675c1.843.032 3.65.413 5.386.955-9.036 12.07-14.48 24.965-17.579 34.23-.132.394-.24.73-.363 1.11a121.13 121.13 0 0 0-.791 2.545 108.179 108.179 0 0 0-.999 3.495c-.461 1.72-.807 3.12-1.023 4.091l-18.28 12.349c-.868-10.352.208-32.456 20.761-53.014 4.61-4.61 8.829-5.831 12.888-5.76zm49.103 26.963a11.667 11.667 0 0 0-8.278 3.431c-4.573 4.574-4.573 11.99 0 16.564 4.574 4.574 11.987 4.574 16.56 0a11.678 11.678 0 0 0 3.432-8.282c0-2.998-1.146-5.995-3.432-8.282a11.676 11.676 0 0 0-8.282-3.431zm-55.906 48.555a18.834 18.834 0 0 0-16.795 10.411c-.09.179-.192.355-.276.535-.786 1.468-6.597 17.266-14.038 39.196a.022.022 0 0 0 .012.004h.033c.004 0 .01.002.012.004 23.774-8.301 39.65-14.339 39.65-14.339l-.003-.008a18.852 18.852 0 0 0 4.865-3.515c4.894-4.895 6.539-11.81 4.942-18.066-.149 2.767-1.236 5.443-3.292 7.499a11.167 11.167 0 0 1-3.084 2.17c-.113.054-.224.116-.34.167-.93.477-9.19 3.367-23.198 6.52l-.052.048-.008-.004H60.485c.002-.008.001-.019.004-.028-.008.002-.014.006-.024.008V321.508l-.004-.008.048-.052c3.153-14.012 6.039-22.276 6.516-23.207.05-.115.113-.226.168-.34a11.165 11.165 0 0 1 2.173-3.08c2.056-2.055 4.725-3.147 7.49-3.295a18.987 18.987 0 0 0-4.77-.592zm93.52 6.7c.652 2.02 1.107 4.125 1.05 6.292-.1 3.838-1.415 7.834-5.753 12.173-20.553 20.558-42.653 21.633-53.002 20.766l12.397-18.357c.569-.15 1.38-.382 2.237-.627l.024-.008c.583-.168 1.182-.354 1.885-.568a145.21 145.21 0 0 0 5.118-1.666 152.69 152.69 0 0 0 3.676-1.338c8.987-3.343 20.859-8.642 32.367-16.667z" style="color:#000;font-style:normal;font-variant:normal;font-weight:400;font-stretch:normal;font-size:medium;line-height:normal;font-family:sans-serif;text-indent:0;text-align:start;text-decoration:none;text-decoration-line:none;text-decoration-style:solid;text-decoration-color:#000;letter-spacing:normal;word-spacing:normal;text-transform:none;writing-mode:lr-tb;direction:ltr;baseline-shift:baseline;text-anchor:start;white-space:normal;clip-rule:nonzero;display:inline;overflow:visible;visibility:visible;isolation:auto;mix-blend-mode:normal;color-interpolation:sRGB;color-interpolation-filters:linearRGB;solid-color:#000;solid-opacity:1;fill:#fff;fill-opacity:1;fill-rule:nonzero;stroke:none;stroke-width:26.4726;stroke-linecap:butt;stroke-linejoin:miter;stroke-miterlimit:4;stroke-dasharray:none;stroke-dashoffset:0;stroke-opacity:1;marker:none;color-rendering:auto;image-rendering:auto;shape-rendering:auto;text-rendering:auto;enable-background:accumulate"/></svg>