<svg xmlns="http://www.w3.org/2000/svg" width="32" height="32" viewBox="0 0 8.467 8.467"><path d="M7.905 5.707A3.969 3.969 0 0 0 6.218.76 3.969 3.969 0 0 0 4.763.265v.534a3.44 3.44 0 0 1 1.19.42 3.44 3.44 0 0 1 1.489 4.22Zm-.53.916-.462-.267a3.44 3.44 0 0 1-4.4.821 3.44 3.44 0 0 1-.958-.821l-.463.267a3.969 3.969 0 0 0 1.157 1.012 3.969 3.969 0 0 0 5.126-1.012ZM3.704.8V.265A3.969 3.969 0 0 0 .797 2.214a3.969 3.969 0 0 0-.234 3.492l.462-.267a3.44 3.44 0 0 1 .23-2.96A3.44 3.44 0 0 1 3.704.798Z" style="fill:#fff;stroke-width:.518341"/></svg>