<svg xmlns="http://www.w3.org/2000/svg" id="Layer_1" width="200" height="80" data-name="Layer 1" version="1.1"><defs id="defs1"><style id="style1">.cls-3{fill:#fff}</style></defs><path id="rect18" d="M0 0v80h50.812V0Zm37.842 35.2.001.03c2.554.09 4.195.615 4.195.615l.38.128.129.38s1.043 3.116.46 7.69c-.57 4.472-2.7 10.407-8.693 16.378.297.686.52 1.494.497 2.39-.03 1.145-.5 2.404-1.616 3.52-6.101 6.102-13.259 4.377-13.259 4.377l-1.123-.281 3.63-5.375-4.548-4.55-4.548-4.548-5.375 3.631-.28-1.125s-1.725-7.16 4.376-13.262c1.186-1.186 2.532-1.638 3.733-1.618.81.015 1.543.225 2.172.497 7.26-7.292 14.462-8.846 19.053-8.872zm-.806 1.628c-4.32.025-11.188 1.443-18.284 8.77-.068.081-.13.163-.195.244-.13.161-.262.322-.384.485-.064.084-.122.168-.183.252-.141.195-.28.39-.413.587l-.045.068c-1.79 2.695-2.692 5.494-3.066 6.898-.057.22-.097.397-.125.52l4.702 4.703 4.687 4.688.008-.002c.12-.032.288-.08.489-.138 1.383-.417 4.132-1.378 6.861-3.083.05-.032.101-.061.152-.093.169-.108.337-.222.505-.335.114-.077.228-.151.343-.231l.003-.003a22.042 22.042 0 0 0 .718-.525c6.038-5.856 8.048-11.553 8.588-15.794.427-3.356-.049-5.692-.274-6.552-.437-.127-1.577-.425-3.678-.457a19.73 19.73 0 0 0-.41-.002zm-5.248 5.067a4.693 4.693 0 0 1 3.33 1.38 4.695 4.695 0 0 1 1.379 3.33 4.695 4.695 0 0 1-1.379 3.33 4.709 4.709 0 1 1-6.66-6.66 4.696 4.696 0 0 1 3.33-1.38zm-16.015 3.309c-.806-.013-1.643.229-2.558 1.144-4.079 4.079-4.292 8.465-4.12 10.52l3.628-2.452c.043-.192.111-.47.203-.811a21.466 21.466 0 0 1 .198-.693 24.036 24.036 0 0 1 .157-.506l.072-.22c.615-1.839 1.695-4.397 3.488-6.792a3.82 3.82 0 0 0-1.068-.19zm9.743 5.35a2.317 2.317 0 0 1 1.643.681c.454.454.682 1.049.682 1.644a2.317 2.317 0 0 1-.682 1.643 2.323 2.323 0 1 1-3.286-3.287 2.315 2.315 0 0 1 1.643-.68zM14.423 60.19a3.768 3.768 0 0 1 .947.118 2.256 2.256 0 0 0-1.487.653 2.215 2.215 0 0 0-.431.612c-.011.023-.023.044-.033.067-.095.185-.668 1.824-1.293 4.605l-.01.01.001.002v.006l.003-.001h.002v.004h.005l.001.002.01-.01c2.78-.625 4.419-1.199 4.604-1.294l.068-.032a2.216 2.216 0 0 0 .611-.432c.408-.408.624-.938.653-1.487a3.75 3.75 0 0 1-.98 3.584 3.74 3.74 0 0 1-.966.698l.001.002s-3.15 1.198-7.868 2.845v-.001h-.01a.004.004 0 0 0-.001 0c1.476-4.352 2.628-7.487 2.784-7.778.017-.036.037-.07.055-.106a3.737 3.737 0 0 1 3.333-2.067zm18.557 1.33c-2.284 1.592-4.64 2.643-6.423 3.307a30.298 30.298 0 0 1-.73.265 28.814 28.814 0 0 1-1.015.33c-.14.043-.258.08-.374.114l-.004.002c-.17.048-.332.094-.445.124l-2.46 3.642c2.054.172 6.44-.04 10.518-4.12.86-.861 1.121-1.654 1.141-2.416.012-.43-.079-.847-.208-1.248z" style="fill:#fff;fill-opacity:1;stroke-width:.2"/><text xml:space="preserve" id="text21" x="58.276" y="70.341" style="font-size:50.6972px;font-family:&quot;Ubuntu Sans&quot;;-inkscape-font-specification:&quot;Ubuntu Sans&quot;;fill:#fff;fill-opacity:1;stroke-width:1.4985"><tspan id="tspan21" x="58.276" y="70.341" style="font-style:normal;font-variant:normal;font-weight:300;font-stretch:normal;font-size:50.6972px;font-family:&quot;Ubuntu Sans&quot;;-inkscape-font-specification:&quot;Ubuntu Sans Light&quot;;fill:#fff;fill-opacity:1;stroke-width:1.4985">Sirf </tspan></text><text xml:space="preserve" id="text21-5" x="58.707" y="19.27" style="font-size:14.5228px;font-family:&quot;Ubuntu Sans&quot;;-inkscape-font-specification:&quot;Ubuntu Sans&quot;;fill:#fff;fill-opacity:1;stroke-width:1.45949"><tspan id="tspan21-3" x="58.707" y="19.27" style="font-style:normal;font-variant:normal;font-weight:400;font-stretch:normal;font-size:14.5228px;font-family:&quot;Ubuntu Sans&quot;;-inkscape-font-specification:&quot;Ubuntu Sans&quot;;fill:#fff;fill-opacity:1;stroke-width:1.45949">Powered by </tspan></text></svg>